<svg width="145" height="331" viewBox="0 0 145 331" fill="none" xmlns="http://www.w3.org/2000/svg">
<path fill-rule="evenodd" clip-rule="evenodd" d="M1.03902 30.6941C36.5633 28.1661 71.9248 -13.7404 102.433 4.65253C132.61 22.8462 117.312 71.3978 125.459 105.705C131.745 132.175 146.638 156.133 144.853 183.282C142.983 211.718 130.668 237.682 115.208 261.612C97.7863 288.578 81.3496 322.551 50.1218 329.913C18.8727 337.279 -7.35449 305.057 -38.648 297.881C-72.91 290.026 -115.356 309.789 -141.279 286.028C-166.858 262.582 -157.049 220.391 -160.839 185.882C-164.491 152.622 -175.878 118.468 -163.076 87.5591C-150.118 56.2726 -123.468 29.5313 -91.4948 18.4528C-61.4858 8.05477 -30.637 32.9482 1.03902 30.6941Z" fill="#E89F00" fill-opacity="0.65"/>
</svg>
