<svg width="1440" height="471" viewBox="0 0 1440 471" fill="none" xmlns="http://www.w3.org/2000/svg">
<g clip-path="url(#clip0_184_119)">
<path fill-rule="evenodd" clip-rule="evenodd" d="M1022.93 242.075C1237.41 279.845 1446.12 62.4797 1452.86 -20.2979L1451.18 0.391101C1444.44 83.1692 1235.73 300.534 1021.25 262.764C920.544 245.03 878.511 312.778 839.906 375.001C796.287 445.305 757.045 508.555 642.498 433.477C495.147 336.899 431.744 352.41 343.991 373.879C303.151 383.871 257.038 395.153 194.735 397.028C37.7922 401.751 -45.3657 290.338 -67.327 234.041L-65.6428 213.352C-43.6816 269.649 39.4764 381.062 196.419 376.339C258.722 374.464 304.836 363.182 345.675 353.19C433.428 331.721 496.831 316.21 644.182 412.788C758.729 487.866 797.971 424.616 841.59 354.312C880.195 292.089 922.228 224.341 1022.93 242.075Z" fill="#EEA500"/>
<path fill-rule="evenodd" clip-rule="evenodd" d="M1023.16 253.348C1237.64 291.118 1446.35 73.7527 1453.09 -9.02501L1451.4 11.664C1444.67 94.4421 1561.71 591.792 1347.23 554.022C1246.53 536.288 1399.32 437.702 1360.72 499.924C1317.1 570.228 719.473 689.89 604.927 614.812C457.575 518.234 499.713 593.343 411.96 614.812C371.121 624.804 145.773 536.531 83.4703 538.406C-73.4726 543.13 -45.1357 301.611 -67.097 245.314L-65.4129 224.625C-43.4516 280.922 39.7064 392.335 196.649 387.612C258.952 385.737 305.066 374.455 345.905 364.463C433.658 342.994 497.061 327.483 644.412 424.061C758.959 499.139 798.201 435.889 841.82 365.585C880.425 303.362 922.458 235.614 1023.16 253.348Z" fill="#2C3236"/>
<path fill-rule="evenodd" clip-rule="evenodd" d="M-64.8528 194.509C-42.8915 250.806 40.2664 362.219 197.209 357.496C259.512 355.621 305.626 344.339 346.465 334.348C434.218 312.878 497.621 297.367 644.972 393.945C759.519 469.023 798.761 405.773 842.38 335.469C880.985 273.247 923.018 205.498 1023.72 223.232C1238.2 261.002 1446.91 43.637 1453.65 -39.1407L1451.97 -18.4517C1445.23 64.3265 1236.52 281.691 1022.04 243.921C921.334 226.187 879.301 293.936 840.696 356.158C797.077 426.462 757.835 489.712 643.288 414.635C495.937 318.056 432.534 333.567 344.781 355.037C303.941 365.029 257.828 376.31 195.525 378.185C38.5823 382.909 -44.5757 271.495 -66.537 215.198L-64.8528 194.509Z" fill="#F3BB40"/>
</g>
<defs>
<clipPath id="clip0_184_119">
<rect width="1440" height="470.705" fill="white"/>
</clipPath>
</defs>
</svg>
