<svg width="526" height="526" viewBox="0 0 526 526" fill="none" xmlns="http://www.w3.org/2000/svg">
<path d="M15.6393 15.6393C25.0157 6.26576 37.7311 1 50.9893 1C64.2475 1 76.9629 6.26576 86.3393 15.6393L263.139 192.439L439.939 15.6393C449.369 6.53141 462 1.4917 475.109 1.60562C488.219 1.71954 500.76 6.97799 510.03 16.2484C519.301 25.5188 524.559 38.0594 524.673 51.1693C524.787 64.2791 519.747 76.9092 510.639 86.3393L333.839 263.139L510.639 439.939C519.747 449.369 524.787 462 524.673 475.109C524.559 488.219 519.301 500.76 510.03 510.03C500.76 519.301 488.219 524.559 475.109 524.673C462 524.787 449.369 519.747 439.939 510.639L263.139 333.839L86.3393 510.639C76.9092 519.747 64.2791 524.787 51.1693 524.673C38.0594 524.559 25.5188 519.301 16.2484 510.03C6.97799 500.76 1.71954 488.219 1.60562 475.109C1.4917 462 6.53141 449.369 15.6393 439.939L192.439 263.139L15.6393 86.3393C6.26576 76.9629 1 64.2475 1 50.9893C1 37.7311 6.26576 25.0157 15.6393 15.6393Z" fill="#140F03" stroke="#140F03" stroke-width="0.78125"/>
</svg>
