<?xml version="1.0" encoding="UTF-8"?>
<svg id="Calque_1" data-name="Calque 1" xmlns="http://www.w3.org/2000/svg" viewBox="0 0 1000 1000">
  <defs>
    <style>
      .cls-1 {
        fill: #6cb96a;
      }

      .cls-2 {
        fill: #b2d6a8;
      }
    </style>
  </defs>
  <path class="cls-2" d="M958.36,359.02c-100.25,77.79-73.37,222.88-142.1,318.4-146.2,165.08-250.2,35.21-303.43-82.48-5.88-13.01-25.18-9.34-25.92,4.92-18.19,352.75-302.36,237.2-339.09-105.51-11.68-75.16-54.57,25.05-125.36-42.28-25.33,784.35,1117.65,647.1,935.9-93.05Z"/>
  <path class="cls-1" d="M252.71,338.19c42.37,53.29,53.66,119.67,70.28,184.04,6.59,8.11,4.73-11.23,5.56-14.59,2.34-119.86,118.06-234.25,237.38-170.11,54.61,30.96,72.19,91.42,85.83,148.79,3.06,12.87,6.62,25.61,10.9,38.14,7.31,21.39,18.82,48.54,30.65,33.69,15.38-36.07,17.16-76.24,24.86-114.34,18.4-98.16,77-185.04,157.99-242.57C669.92-78.24,204.23-25.23,64.81,290.9c61.51-30.41,145.4-6.18,187.91,47.29Z"/>
</svg>