<svg width="826" height="502" viewBox="0 0 826 502" fill="none" xmlns="http://www.w3.org/2000/svg">
<path d="M332.33 491.11C326.39 494.04 320.01 496.47 313.18 498.34C277.38 508.14 239.76 496.22 213.27 471.1C191.82 450.76 180.34 424.01 169.58 397.17C148.78 345.28 137.37 292.03 122.57 238.42C121.45 234.38 120.16 230.39 118.97 226.37C118.86 226 118.06 223.84 117.16 222.3C116.09 220.03 114.28 215.6 113.05 213.5C113.05 213.5 110.87 208.57 117.45 199.51C118.79 197.88 114.37 203.04 113.04 204.73C90.37 233.66 43.64 226.44 19.99 204.73C7.88997 193.62 0.719971 174.34 0.719971 158.21C0.719971 139.2 8.75997 126.02 19.99 111.69C68.01 50.4002 165.54 68.0302 209.53 123.36C247.83 171.55 255.49 232.63 271.66 290.39C271.53 281.52 271.66 272.65 272.38 263.79C277.82 197.3 308.51 135.58 375.64 113.65C405.97 103.74 441.39 106.76 469.11 122.81C473.65 125.44 477.9 128.32 481.88 131.44C503.19 148.09 516.91 171.29 526.61 196.83C534.46 217.48 537.44 239.55 543.66 260.69C545.99 268.6 548.72 276.37 551.56 284.11C551.74 284.6 555.63 293.99 552.91 287.7C550.19 281.4 554.37 290.7 554.59 291.15C556.56 295.61 562.22 305.41 567.46 314.67C574.11 309.75 573.98 305.26 576.73 300.62C576.42 301.07 577.07 300.3 577.3 299.35C577.4 298.82 576.69 300.68 577.7 298.47C579.46 293.24 580.96 287.93 582.3 282.58C588.21 259 590.74 234.76 595.26 210.91C600.56 183 610.05 156.79 622.13 131.08C645.29 81.7502 682.71 42.1602 726.02 10.0002C755.57 -11.9398 798.46 6.34019 816.04 33.6002C836.75 65.7302 819.98 103.16 792.44 123.62C804.12 114.95 788.04 127.45 785.13 130.08C779.88 134.84 774.82 139.82 769.99 145C767.57 147.6 765.28 150.3 762.9 152.93C762.13 153.78 756.23 160.55 761.33 154.52C766.5 148.43 759.36 157.25 758.49 158.49C756.95 160.66 755.44 162.85 753.97 165.07C746.58 176.24 740.75 188.03 734.65 199.91C730.35 208.28 737.96 189.93 735.12 198.9C734.32 201.42 733.24 203.89 732.38 206.39C730.35 212.25 728.56 218.19 726.98 224.19C712.04 280.86 713.39 341.06 676.56 390.16C655.63 418.06 628.12 441.35 593.1 448.9C571.83 453.48 550.87 452.77 531.28 447.03C514.4 442.08 498.53 433.4 484.38 421.15C463.71 403.26 449.48 376.54 438.39 351.95C426.5 325.57 417.06 299.01 410.47 270.9C408.51 262.53 406.8 254.02 405.33 245.35C401.49 277.94 404.95 310.12 404.67 342.55C404.19 398.95 385.58 464.91 332.33 491.14V491.11Z" fill="#6CB96A"/>
</svg>
