<?xml version="1.0" encoding="UTF-8"?>
<svg id="Calque_1" data-name="Calque 1" xmlns="http://www.w3.org/2000/svg" viewBox="0 0 1000 1000">
  <defs>
    <style>
      .cls-1 {
        fill: #f0a500;
      }
    </style>
  </defs>
  <path class="cls-1" d="M419.33,740.11c-5.94,2.93-12.32,5.36-19.15,7.23-35.8,9.8-73.42-2.12-99.91-27.24-21.45-20.34-32.93-47.09-43.69-73.93-20.8-51.89-32.21-105.14-47.01-158.75-1.12-4.04-2.41-8.03-3.6-12.05-.11-.37-.91-2.53-1.81-4.07-1.07-2.27-2.88-6.7-4.11-8.8,0,0-2.18-4.93,4.4-13.99,1.34-1.63-3.08,3.53-4.41,5.22-22.67,28.93-69.4,21.71-93.05,0-12.1-11.11-19.27-30.39-19.27-46.52,0-19.01,8.04-32.19,19.27-46.52,48.02-61.29,145.55-43.66,189.54,11.67,38.3,48.19,45.96,109.27,62.13,167.03-.13-8.87,0-17.74.72-26.6,5.44-66.49,36.13-128.21,103.26-150.14,30.33-9.91,65.75-6.89,93.47,9.16,4.54,2.63,8.79,5.51,12.77,8.63,21.31,16.65,35.03,39.85,44.73,65.39,7.85,20.65,10.83,42.72,17.05,63.86,2.33,7.91,5.06,15.68,7.9,23.42.18.49,4.07,9.88,1.35,3.59-2.72-6.3,1.46,3,1.68,3.45,1.97,4.46,7.63,14.26,12.87,23.52,6.65-4.92,6.52-9.41,9.27-14.05-.31.45.34-.32.57-1.27.1-.53-.61,1.33.4-.88,1.76-5.23,3.26-10.54,4.6-15.89,5.91-23.58,8.44-47.82,12.96-71.67,5.3-27.91,14.79-54.12,26.87-79.83,23.16-49.33,60.58-88.92,103.89-121.08,29.55-21.94,72.44-3.66,90.02,23.6,20.71,32.13,3.94,69.56-23.6,90.02,11.68-8.67-4.4,3.83-7.31,6.46-5.25,4.76-10.31,9.74-15.14,14.92-2.42,2.6-4.71,5.3-7.09,7.93-.77.85-6.67,7.62-1.57,1.59,5.17-6.09-1.97,2.73-2.84,3.97-1.54,2.17-3.05,4.36-4.52,6.58-7.39,11.17-13.22,22.96-19.32,34.84-4.3,8.37,3.31-9.98.47-1.01-.8,2.52-1.88,4.99-2.74,7.49-2.03,5.86-3.82,11.8-5.4,17.8-14.94,56.67-13.59,116.87-50.42,165.97-20.93,27.9-48.44,51.19-83.46,58.74-21.27,4.58-42.23,3.87-61.82-1.87-16.88-4.95-32.75-13.63-46.9-25.88-20.67-17.89-34.9-44.61-45.99-69.2-11.89-26.38-21.33-52.94-27.92-81.05-1.96-8.37-3.67-16.88-5.14-25.55-3.84,32.59-.38,64.77-.66,97.2-.48,56.4-19.09,122.36-72.34,148.59Z"/>
</svg>