<svg width="1000" height="1000" viewBox="0 0 1000 1000" fill="none" xmlns="http://www.w3.org/2000/svg">
<path d="M419.33 740.11C413.39 743.04 407.01 745.47 400.18 747.34C364.38 757.14 326.76 745.22 300.27 720.1C278.82 699.76 267.34 673.01 256.58 646.17C235.78 594.28 224.37 541.03 209.57 487.42C208.45 483.38 207.16 479.39 205.97 475.37C205.86 475 205.06 472.84 204.16 471.3C203.09 469.03 201.28 464.6 200.05 462.5C200.05 462.5 197.87 457.57 204.45 448.51C205.79 446.88 201.37 452.04 200.04 453.73C177.37 482.66 130.64 475.44 106.99 453.73C94.89 442.62 87.72 423.34 87.72 407.21C87.72 388.2 95.76 375.02 106.99 360.69C155.01 299.4 252.54 317.03 296.53 372.36C334.83 420.55 342.49 481.63 358.66 539.39C358.53 530.52 358.66 521.65 359.38 512.79C364.82 446.3 395.51 384.58 462.64 362.65C492.97 352.74 528.39 355.76 556.11 371.81C560.65 374.44 564.9 377.32 568.88 380.44C590.19 397.09 603.91 420.29 613.61 445.83C621.46 466.48 624.44 488.55 630.66 509.69C632.99 517.6 635.72 525.37 638.56 533.11C638.74 533.6 642.63 542.99 639.91 536.7C637.19 530.4 641.37 539.7 641.59 540.15C643.56 544.61 649.22 554.41 654.46 563.67C661.11 558.75 660.98 554.26 663.73 549.62C663.42 550.07 664.07 549.3 664.3 548.35C664.4 547.82 663.69 549.68 664.7 547.47C666.46 542.24 667.96 536.93 669.3 531.58C675.21 508 677.74 483.76 682.26 459.91C687.56 432 697.05 405.79 709.13 380.08C732.29 330.75 769.71 291.16 813.02 259C842.57 237.06 885.46 255.34 903.04 282.6C923.75 314.73 906.98 352.16 879.44 372.62C891.12 363.95 875.04 376.45 872.13 379.08C866.88 383.84 861.82 388.82 856.99 394C854.57 396.6 852.28 399.3 849.9 401.93C849.13 402.78 843.23 409.55 848.33 403.52C853.5 397.43 846.36 406.25 845.49 407.49C843.95 409.66 842.44 411.85 840.97 414.07C833.58 425.24 827.75 437.03 821.65 448.91C817.35 457.28 824.96 438.93 822.12 447.9C821.32 450.42 820.24 452.89 819.38 455.39C817.35 461.25 815.56 467.19 813.98 473.19C799.04 529.86 800.39 590.06 763.56 639.16C742.63 667.06 715.12 690.35 680.1 697.9C658.83 702.48 637.87 701.77 618.28 696.03C601.4 691.08 585.53 682.4 571.38 670.15C550.71 652.26 536.48 625.54 525.39 600.95C513.5 574.57 504.06 548.01 497.47 519.9C495.51 511.53 493.8 503.02 492.33 494.35C488.49 526.94 491.95 559.12 491.67 591.55C491.19 647.95 472.58 713.91 419.33 740.14V740.11Z" fill="#6BC4CC"/>
</svg>
